<mxfile host="app.diagrams.net" agent="Mozilla/5.0 (Windows NT 10.0; Win64; x64) AppleWebKit/537.36 (KHTML, like Gecko) Chrome/131.0.0.0 Safari/537.36" version="25.0.3">
  <diagram name="Trang-1" id="wsgvdCu0Z_zbOvhUKjBc">
    <mxGraphModel dx="880" dy="468" grid="1" gridSize="10" guides="1" tooltips="1" connect="1" arrows="1" fold="1" page="1" pageScale="1" pageWidth="827" pageHeight="1169" math="0" shadow="0">
      <root>
        <mxCell id="0" />
        <mxCell id="1" parent="0" />
        <mxCell id="bX9UNvuGpJoQYGYEXFOM-18" style="edgeStyle=orthogonalEdgeStyle;rounded=0;orthogonalLoop=1;jettySize=auto;html=1;exitX=1;exitY=0.5;exitDx=0;exitDy=0;entryX=0;entryY=0.5;entryDx=0;entryDy=0;" edge="1" parent="1" source="bX9UNvuGpJoQYGYEXFOM-1" target="bX9UNvuGpJoQYGYEXFOM-2">
          <mxGeometry relative="1" as="geometry" />
        </mxCell>
        <mxCell id="bX9UNvuGpJoQYGYEXFOM-1" value="Start" style="rounded=0;whiteSpace=wrap;html=1;" vertex="1" parent="1">
          <mxGeometry y="200" width="120" height="60" as="geometry" />
        </mxCell>
        <mxCell id="bX9UNvuGpJoQYGYEXFOM-19" style="edgeStyle=orthogonalEdgeStyle;rounded=0;orthogonalLoop=1;jettySize=auto;html=1;exitX=1;exitY=0.5;exitDx=0;exitDy=0;entryX=0;entryY=0.5;entryDx=0;entryDy=0;" edge="1" parent="1" source="bX9UNvuGpJoQYGYEXFOM-2" target="bX9UNvuGpJoQYGYEXFOM-5">
          <mxGeometry relative="1" as="geometry" />
        </mxCell>
        <mxCell id="bX9UNvuGpJoQYGYEXFOM-20" style="edgeStyle=orthogonalEdgeStyle;rounded=0;orthogonalLoop=1;jettySize=auto;html=1;exitX=1;exitY=0.5;exitDx=0;exitDy=0;entryX=0;entryY=0.5;entryDx=0;entryDy=0;" edge="1" parent="1" source="bX9UNvuGpJoQYGYEXFOM-2" target="bX9UNvuGpJoQYGYEXFOM-4">
          <mxGeometry relative="1" as="geometry" />
        </mxCell>
        <mxCell id="bX9UNvuGpJoQYGYEXFOM-21" style="edgeStyle=orthogonalEdgeStyle;rounded=0;orthogonalLoop=1;jettySize=auto;html=1;exitX=1;exitY=0.5;exitDx=0;exitDy=0;entryX=0;entryY=0.5;entryDx=0;entryDy=0;" edge="1" parent="1" source="bX9UNvuGpJoQYGYEXFOM-2" target="bX9UNvuGpJoQYGYEXFOM-7">
          <mxGeometry relative="1" as="geometry" />
        </mxCell>
        <mxCell id="bX9UNvuGpJoQYGYEXFOM-22" style="edgeStyle=orthogonalEdgeStyle;rounded=0;orthogonalLoop=1;jettySize=auto;html=1;exitX=1;exitY=0.5;exitDx=0;exitDy=0;entryX=0;entryY=0.5;entryDx=0;entryDy=0;" edge="1" parent="1" source="bX9UNvuGpJoQYGYEXFOM-2" target="bX9UNvuGpJoQYGYEXFOM-6">
          <mxGeometry relative="1" as="geometry" />
        </mxCell>
        <mxCell id="bX9UNvuGpJoQYGYEXFOM-2" value="a,b,o" style="rounded=0;whiteSpace=wrap;html=1;" vertex="1" parent="1">
          <mxGeometry x="160" y="200" width="120" height="60" as="geometry" />
        </mxCell>
        <mxCell id="bX9UNvuGpJoQYGYEXFOM-24" style="edgeStyle=orthogonalEdgeStyle;rounded=0;orthogonalLoop=1;jettySize=auto;html=1;exitX=1;exitY=0.5;exitDx=0;exitDy=0;entryX=0;entryY=0.5;entryDx=0;entryDy=0;" edge="1" parent="1" source="bX9UNvuGpJoQYGYEXFOM-4" target="bX9UNvuGpJoQYGYEXFOM-11">
          <mxGeometry relative="1" as="geometry" />
        </mxCell>
        <mxCell id="bX9UNvuGpJoQYGYEXFOM-4" value="o==&quot;-&quot;" style="rhombus;whiteSpace=wrap;html=1;" vertex="1" parent="1">
          <mxGeometry x="320" y="140" width="80" height="80" as="geometry" />
        </mxCell>
        <mxCell id="bX9UNvuGpJoQYGYEXFOM-23" style="edgeStyle=orthogonalEdgeStyle;rounded=0;orthogonalLoop=1;jettySize=auto;html=1;exitX=1;exitY=0.5;exitDx=0;exitDy=0;" edge="1" parent="1" source="bX9UNvuGpJoQYGYEXFOM-5" target="bX9UNvuGpJoQYGYEXFOM-10">
          <mxGeometry relative="1" as="geometry" />
        </mxCell>
        <mxCell id="bX9UNvuGpJoQYGYEXFOM-5" value="o==&quot;+&quot;" style="rhombus;whiteSpace=wrap;html=1;" vertex="1" parent="1">
          <mxGeometry x="320" y="40" width="80" height="80" as="geometry" />
        </mxCell>
        <mxCell id="bX9UNvuGpJoQYGYEXFOM-26" style="edgeStyle=orthogonalEdgeStyle;rounded=0;orthogonalLoop=1;jettySize=auto;html=1;exitX=1;exitY=0.5;exitDx=0;exitDy=0;entryX=0;entryY=0.5;entryDx=0;entryDy=0;" edge="1" parent="1" source="bX9UNvuGpJoQYGYEXFOM-6" target="bX9UNvuGpJoQYGYEXFOM-13">
          <mxGeometry relative="1" as="geometry" />
        </mxCell>
        <mxCell id="bX9UNvuGpJoQYGYEXFOM-27" style="edgeStyle=orthogonalEdgeStyle;rounded=0;orthogonalLoop=1;jettySize=auto;html=1;exitX=1;exitY=0.5;exitDx=0;exitDy=0;entryX=0;entryY=0.5;entryDx=0;entryDy=0;" edge="1" parent="1" source="bX9UNvuGpJoQYGYEXFOM-6" target="bX9UNvuGpJoQYGYEXFOM-14">
          <mxGeometry relative="1" as="geometry" />
        </mxCell>
        <mxCell id="bX9UNvuGpJoQYGYEXFOM-6" value="0==&quot;/&quot;" style="rhombus;whiteSpace=wrap;html=1;" vertex="1" parent="1">
          <mxGeometry x="320" y="340" width="80" height="80" as="geometry" />
        </mxCell>
        <mxCell id="bX9UNvuGpJoQYGYEXFOM-25" style="edgeStyle=orthogonalEdgeStyle;rounded=0;orthogonalLoop=1;jettySize=auto;html=1;exitX=1;exitY=0.5;exitDx=0;exitDy=0;" edge="1" parent="1" source="bX9UNvuGpJoQYGYEXFOM-7" target="bX9UNvuGpJoQYGYEXFOM-12">
          <mxGeometry relative="1" as="geometry" />
        </mxCell>
        <mxCell id="bX9UNvuGpJoQYGYEXFOM-7" value="o=&quot;*&quot;" style="rhombus;whiteSpace=wrap;html=1;" vertex="1" parent="1">
          <mxGeometry x="320" y="240" width="80" height="80" as="geometry" />
        </mxCell>
        <mxCell id="bX9UNvuGpJoQYGYEXFOM-30" style="edgeStyle=orthogonalEdgeStyle;rounded=0;orthogonalLoop=1;jettySize=auto;html=1;exitX=1;exitY=0.5;exitDx=0;exitDy=0;entryX=0;entryY=0.5;entryDx=0;entryDy=0;" edge="1" parent="1" source="bX9UNvuGpJoQYGYEXFOM-10" target="bX9UNvuGpJoQYGYEXFOM-16">
          <mxGeometry relative="1" as="geometry" />
        </mxCell>
        <mxCell id="bX9UNvuGpJoQYGYEXFOM-10" value="a+b" style="rounded=0;whiteSpace=wrap;html=1;" vertex="1" parent="1">
          <mxGeometry x="540" y="50" width="120" height="60" as="geometry" />
        </mxCell>
        <mxCell id="bX9UNvuGpJoQYGYEXFOM-32" style="edgeStyle=orthogonalEdgeStyle;rounded=0;orthogonalLoop=1;jettySize=auto;html=1;exitX=1;exitY=0.5;exitDx=0;exitDy=0;entryX=0;entryY=0.5;entryDx=0;entryDy=0;" edge="1" parent="1" source="bX9UNvuGpJoQYGYEXFOM-11" target="bX9UNvuGpJoQYGYEXFOM-16">
          <mxGeometry relative="1" as="geometry" />
        </mxCell>
        <mxCell id="bX9UNvuGpJoQYGYEXFOM-11" value="a-b" style="rounded=0;whiteSpace=wrap;html=1;" vertex="1" parent="1">
          <mxGeometry x="540" y="150" width="120" height="60" as="geometry" />
        </mxCell>
        <mxCell id="bX9UNvuGpJoQYGYEXFOM-33" style="edgeStyle=orthogonalEdgeStyle;rounded=0;orthogonalLoop=1;jettySize=auto;html=1;exitX=1;exitY=0.5;exitDx=0;exitDy=0;entryX=0;entryY=0.5;entryDx=0;entryDy=0;" edge="1" parent="1" source="bX9UNvuGpJoQYGYEXFOM-12" target="bX9UNvuGpJoQYGYEXFOM-16">
          <mxGeometry relative="1" as="geometry" />
        </mxCell>
        <mxCell id="bX9UNvuGpJoQYGYEXFOM-12" value="a*b" style="rounded=0;whiteSpace=wrap;html=1;" vertex="1" parent="1">
          <mxGeometry x="540" y="250" width="120" height="60" as="geometry" />
        </mxCell>
        <mxCell id="bX9UNvuGpJoQYGYEXFOM-28" style="edgeStyle=orthogonalEdgeStyle;rounded=0;orthogonalLoop=1;jettySize=auto;html=1;exitX=1;exitY=0.5;exitDx=0;exitDy=0;entryX=0;entryY=0.5;entryDx=0;entryDy=0;" edge="1" parent="1" source="bX9UNvuGpJoQYGYEXFOM-13" target="bX9UNvuGpJoQYGYEXFOM-15">
          <mxGeometry relative="1" as="geometry" />
        </mxCell>
        <mxCell id="bX9UNvuGpJoQYGYEXFOM-13" value="b=0" style="rhombus;whiteSpace=wrap;html=1;" vertex="1" parent="1">
          <mxGeometry x="440" y="340" width="80" height="80" as="geometry" />
        </mxCell>
        <mxCell id="bX9UNvuGpJoQYGYEXFOM-29" style="edgeStyle=orthogonalEdgeStyle;rounded=0;orthogonalLoop=1;jettySize=auto;html=1;exitX=1;exitY=0.5;exitDx=0;exitDy=0;entryX=0;entryY=0.5;entryDx=0;entryDy=0;" edge="1" parent="1" source="bX9UNvuGpJoQYGYEXFOM-14" target="bX9UNvuGpJoQYGYEXFOM-17">
          <mxGeometry relative="1" as="geometry" />
        </mxCell>
        <mxCell id="bX9UNvuGpJoQYGYEXFOM-14" value="b!=0" style="rhombus;whiteSpace=wrap;html=1;" vertex="1" parent="1">
          <mxGeometry x="440" y="440" width="80" height="80" as="geometry" />
        </mxCell>
        <mxCell id="bX9UNvuGpJoQYGYEXFOM-34" style="edgeStyle=orthogonalEdgeStyle;rounded=0;orthogonalLoop=1;jettySize=auto;html=1;exitX=1;exitY=0.5;exitDx=0;exitDy=0;entryX=0;entryY=0.5;entryDx=0;entryDy=0;" edge="1" parent="1" source="bX9UNvuGpJoQYGYEXFOM-15" target="bX9UNvuGpJoQYGYEXFOM-16">
          <mxGeometry relative="1" as="geometry" />
        </mxCell>
        <mxCell id="bX9UNvuGpJoQYGYEXFOM-15" value="không thể chia" style="rounded=0;whiteSpace=wrap;html=1;" vertex="1" parent="1">
          <mxGeometry x="540" y="350" width="120" height="60" as="geometry" />
        </mxCell>
        <mxCell id="bX9UNvuGpJoQYGYEXFOM-16" value="End" style="rounded=0;whiteSpace=wrap;html=1;" vertex="1" parent="1">
          <mxGeometry x="707" y="200" width="120" height="60" as="geometry" />
        </mxCell>
        <mxCell id="bX9UNvuGpJoQYGYEXFOM-35" style="edgeStyle=orthogonalEdgeStyle;rounded=0;orthogonalLoop=1;jettySize=auto;html=1;exitX=1;exitY=0.5;exitDx=0;exitDy=0;entryX=0;entryY=0.5;entryDx=0;entryDy=0;" edge="1" parent="1" source="bX9UNvuGpJoQYGYEXFOM-17" target="bX9UNvuGpJoQYGYEXFOM-16">
          <mxGeometry relative="1" as="geometry" />
        </mxCell>
        <mxCell id="bX9UNvuGpJoQYGYEXFOM-17" value="a/b" style="rounded=0;whiteSpace=wrap;html=1;" vertex="1" parent="1">
          <mxGeometry x="540" y="450" width="120" height="60" as="geometry" />
        </mxCell>
      </root>
    </mxGraphModel>
  </diagram>
</mxfile>
